<svg xmlns="http://www.w3.org/2000/svg" version="1.1" xmlns:xlink="http://www.w3.org/1999/xlink" xmlns:svgjs="http://svgjs.dev/svgjs" width="2000" height="666" viewBox="0 0 2000 666"><g transform="matrix(1,0,0,1,-1.2121212121212466,-0.3245234352951911)"><svg viewBox="0 0 396 132" data-background-color="#c8c8c8" preserveAspectRatio="xMidYMid meet" height="666" width="2000" xmlns="http://www.w3.org/2000/svg" xmlns:xlink="http://www.w3.org/1999/xlink"><g id="tight-bounds" transform="matrix(1,0,0,1,0.2400000000000091,0.06431996014859465)"><svg viewBox="0 0 395.52 131.8710751227955" height="131.8710751227955" width="395.52"><g><svg viewBox="0 0 676.4620935590873 225.54051263514845" height="131.8710751227955" width="395.52"><g transform="matrix(1,0,0,1,280.94209355908737,54.10103441028704)"><svg viewBox="0 0 395.5199999999999 117.33844381457436" height="117.33844381457436" width="395.5199999999999"><g id="textblocktransform"><svg viewBox="0 0 395.5199999999999 117.33844381457436" height="117.33844381457436" width="395.5199999999999" id="textblock"><g><svg viewBox="0 0 395.5199999999999 117.33844381457436" height="117.33844381457436" width="395.5199999999999"><g transform="matrix(1,0,0,1,0,0)"><svg width="395.5199999999999" viewBox="1.9383335333419998 -36.95 158.751666466658 47.1" height="117.33844381457436" data-palette-color="#000000"><path d="M13.85 0.3L13.85 0.3Q10.7 0.3 8.43-0.98 6.15-2.25 4.67-4.48 3.2-6.7 2.53-9.53 1.85-12.35 1.95-15.4L1.95-15.4Q2.15-20.85 3.95-24.8 5.75-28.75 8.5-31.3 11.25-33.85 14.43-35.08 17.6-36.3 20.55-36.3L20.55-36.3Q23.05-36.3 25.08-35.48 27.1-34.65 28.3-33.08 29.5-31.5 29.5-29.25L29.5-29.25Q29.5-27.5 28.48-25.88 27.45-24.25 25.38-23.23 23.3-22.2 20.05-22.2L20.05-22.2Q20.6-23.8 20.85-25 21.1-26.2 21.1-27.05L21.1-27.05Q21.1-28.8 20.3-29.43 19.5-30.05 18.3-30.05L18.3-30.05Q16.85-30.05 15.55-29 14.25-27.95 13.23-26.18 12.2-24.4 11.6-22.25 11-20.1 10.9-17.9L10.9-17.9Q10.7-12.35 12.5-9.5 14.3-6.65 17.15-6.65L17.15-6.65Q19.35-6.65 22.03-8.45 24.7-10.25 27.3-13.9L27.3-13.9 27.95-13.6Q27.3-9.1 25.1-6 22.9-2.9 19.93-1.3 16.95 0.3 13.85 0.3ZM49.65 0.25L49.65 0.25Q47.9 0.25 46.6-0.9 45.3-2.05 45.3-4.65L45.3-4.65Q45.3-4.9 45.3-5.15 45.3-5.4 45.35-5.65L45.35-5.65Q43.85-2.65 41.97-1.23 40.1 0.2 38.2 0.2L38.2 0.2Q36.45 0.2 34.9-1.03 33.35-2.25 32.4-4.65 31.45-7.05 31.45-10.45L31.45-10.45Q31.45-13.95 32.42-16.7 33.4-19.45 35-21.35 36.6-23.25 38.5-24.23 40.4-25.2 42.2-25.2L42.2-25.2Q44.2-25.2 45.8-23.98 47.4-22.75 48-20.1L48-20.1Q48.15-20.95 48.22-21.65 48.3-22.35 48.3-22.6L48.3-22.6Q48.35-23.95 49.67-24.6 51-25.25 52.6-25.25L52.6-25.25Q54-25.25 55.25-24.7 56.5-24.15 56.95-22.85L56.95-22.85 57.05-22.55Q56.45-21.2 55.85-19.3 55.25-17.4 54.75-15.33 54.25-13.25 53.95-11.28 53.65-9.3 53.65-7.8L53.65-7.8Q53.65-6.15 54-5.53 54.35-4.9 54.85-4.9L54.85-4.9Q55.7-4.9 56.4-6.1L56.4-6.1 56.8-5.9Q56.8-4.2 55.7-2.8 54.6-1.4 52.95-0.58 51.3 0.25 49.65 0.25ZM41.5-6.1L41.5-6.1Q42.8-6.1 44.37-8.43 45.95-10.75 47.1-15.1L47.1-15.1Q47.2-15.55 47.3-15.98 47.4-16.4 47.45-16.8L47.45-16.8Q46.65-18.65 45.77-19.43 44.9-20.2 44.05-20.2L44.05-20.2Q42.8-20.2 41.72-18.88 40.65-17.55 39.97-15.55 39.3-13.55 39.3-11.55L39.3-11.55Q39.3-8.8 39.92-7.45 40.55-6.1 41.5-6.1ZM65.5 0.2L65.5 0.2Q63.7 0.2 62.3-1.28 60.9-2.75 60.9-5.45L60.9-5.45Q60.9-6.75 61.2-8.4 61.5-10.05 61.9-11.78 62.3-13.5 62.6-15.03 62.9-16.55 62.9-17.55L62.9-17.55Q62.9-18.6 62.52-19.23 62.15-19.85 61.55-19.85L61.55-19.85Q60.6-19.85 59.6-18.55L59.6-18.55 59.3-18.75Q59.25-19.55 59.65-20.65 60.05-21.75 60.9-22.78 61.75-23.8 63.07-24.5 64.4-25.2 66.2-25.2L66.2-25.2Q68.85-25.2 70.05-23.68 71.25-22.15 71.25-20L71.25-20Q71.25-19.65 71.22-19.28 71.2-18.9 71.15-18.55L71.15-18.55Q72.95-21.8 74.92-23.53 76.9-25.25 78.6-25.25L78.6-25.25Q80.2-25.25 80.95-24 81.7-22.75 81.7-21L81.7-21Q81.7-19.4 81.07-17.75 80.45-16.1 79.22-15.03 78-13.95 76.25-14L76.25-14 76.05-14.1Q76-15.4 75.2-16.15 74.4-16.9 73.4-16.9L73.4-16.9Q72.05-16.9 70.87-15.55 69.7-14.2 69.7-11.65L69.7-11.65Q69.7-10.1 70.05-8.3 70.4-6.5 70.4-5.25L70.4-5.25Q70.4-3.75 69.7-2.5 69-1.25 67.9-0.53 66.8 0.2 65.5 0.2ZM90.29 0.2L90.29 0.2Q88.69 0.2 87.27-0.53 85.84-1.25 84.97-2.8 84.09-4.35 84.09-6.75L84.09-6.75Q84.09-8.05 84.34-10.15 84.59-12.25 85.02-14.75 85.44-17.25 85.89-19.75L85.89-19.75Q84.89-19.7 83.97-19.55 83.04-19.4 82.14-19.2L82.14-19.2 82.04-19.55Q83.04-20.75 84.14-21.6 85.24-22.45 86.44-23L86.44-23Q87.09-26.3 87.54-28.73 87.99-31.15 87.99-31.6L87.99-31.6Q87.99-32.45 89.32-33 90.64-33.55 92.29-33.55L92.29-33.55Q93.74-33.55 95.02-33 96.29-32.45 96.74-31.15L96.74-31.15Q96.44-30.85 95.89-28.93 95.34-27 94.74-24.25L94.74-24.25Q95.69-24.2 96.69-24.15 97.69-24.1 98.74-24L98.74-24Q98.84-23.7 98.89-23.35 98.94-23 98.94-22.6L98.94-22.6Q98.94-21.85 98.72-20.98 98.49-20.1 98.19-19.4L98.19-19.4Q96.99-19.5 95.94-19.63 94.89-19.75 93.89-19.8L93.89-19.8Q93.49-17.65 93.17-15.5 92.84-13.35 92.67-11.6 92.49-9.85 92.49-8.85L92.49-8.85Q92.49-6.75 93.27-6.05 94.04-5.35 95.14-5.35L95.14-5.35Q96.14-5.35 96.94-5.75 97.74-6.15 98.09-6.7L98.09-6.7 98.59-6.55Q98.29-4.5 96.99-2.98 95.69-1.45 93.89-0.63 92.09 0.2 90.29 0.2ZM110.24-26.75L110.24-26.75Q108.24-26.75 106.97-27.98 105.69-29.2 105.69-31.05L105.69-31.05Q105.69-33.05 107.19-34.5 108.69-35.95 110.84-35.95L110.84-35.95Q112.84-35.95 114.12-34.7 115.39-33.45 115.39-31.6L115.39-31.6Q115.39-29.6 113.89-28.18 112.39-26.75 110.24-26.75ZM106.74 0.2L106.74 0.2Q104.79 0.2 103.24-1.18 101.69-2.55 101.69-5.6L101.69-5.6Q101.69-7.35 102.17-8.88 102.64-10.4 103.27-11.85 103.89-13.3 104.37-14.68 104.84-16.05 104.84-17.4L104.84-17.4Q104.84-18.6 104.44-19.13 104.04-19.65 103.49-19.65L103.49-19.65Q102.64-19.65 101.84-18.55L101.84-18.55 101.49-18.75Q101.69-20.75 102.77-22.18 103.84-23.6 105.42-24.4 106.99-25.2 108.54-25.2L108.54-25.2Q110.44-25.2 111.84-23.98 113.24-22.75 113.24-20L113.24-20Q113.24-18.35 112.77-16.53 112.29-14.7 111.67-12.9 111.04-11.1 110.57-9.55 110.09-8 110.09-6.9L110.09-6.9Q110.09-5.95 110.47-5.55 110.84-5.15 111.29-5.15L111.29-5.15Q111.74-5.15 112.17-5.43 112.59-5.7 112.79-6.05L112.79-6.05 113.14-5.95Q113.14-4.1 112.17-2.73 111.19-1.35 109.74-0.58 108.29 0.2 106.74 0.2ZM122.34 10.15L122.34 10.15Q120.89 10.15 119.59 9.63 118.29 9.1 117.79 8.05L117.79 8.05Q118.99 2.95 119.76-1 120.54-4.95 120.99-8.05 121.44-11.15 121.64-13.73 121.84-16.3 121.89-18.7L121.89-18.7Q120.19-18.6 118.64-18.38 117.09-18.15 115.94-17.75L115.94-17.75 115.84-18.1Q117.29-19.55 118.84-20.53 120.39-21.5 121.94-22.1L121.94-22.1 121.94-25.9Q121.94-29.75 123.49-32.18 125.04-34.6 127.46-35.77 129.89-36.95 132.49-36.95L132.49-36.95Q135.94-36.95 137.66-35.3 139.39-33.65 139.39-31.6L139.39-31.6Q139.39-30.1 138.46-28.7 137.54-27.3 135.69-26.38 133.84-25.45 131.04-25.45L131.04-25.45Q131.84-26.9 132.26-28.35 132.69-29.8 132.69-30.9L132.69-30.9Q132.69-31.75 132.44-32.27 132.19-32.8 131.74-32.8L131.74-32.8Q130.79-32.8 129.91-30.43 129.04-28.05 129.04-24.2L129.04-24.2 129.04-23.25Q130.49-23.3 131.81-23.2 133.14-23.1 134.29-23L134.29-23Q134.39-22.65 134.44-22.25 134.49-21.85 134.49-21.45L134.49-21.45Q134.49-20.7 134.29-19.95 134.09-19.2 133.74-18.4L133.74-18.4Q132.84-18.5 131.69-18.6 130.54-18.7 129.24-18.75L129.24-18.75 129.24-17.65Q129.24-14.9 129.01-11.3 128.79-7.7 128.19-2.75 127.59 2.2 126.34 9.05L126.34 9.05Q124.79 10.15 122.34 10.15ZM147.34 10L147.34 10Q144.84 10 143.31 8.47 141.79 6.95 141.79 4.35L141.79 4.35Q141.79 3 142.26 1.38 142.74-0.25 143.84-2.05L143.84-2.05Q141.39-2.2 139.81-3.7 138.24-5.2 138.24-8.25L138.24-8.25Q138.24-10.05 138.71-12.13 139.19-14.2 139.64-16.03 140.09-17.85 140.09-18.85L140.09-18.85Q140.09-19.6 139.79-19.93 139.49-20.25 139.09-20.25L139.09-20.25Q138.69-20.25 138.21-19.93 137.74-19.6 137.49-18.95L137.49-18.95 136.64-19.85Q136.94-21.4 137.94-22.6 138.94-23.8 140.39-24.5 141.84-25.2 143.39-25.2L143.39-25.2Q145.14-25.2 146.44-24.08 147.74-22.95 147.74-20L147.74-20Q147.74-18.15 147.29-16.03 146.84-13.9 146.39-12.03 145.94-10.15 145.94-9.05L145.94-9.05Q145.94-8.05 146.36-7.58 146.79-7.1 147.34-7.1L147.34-7.1Q148.04-7.1 148.94-7.88 149.84-8.65 150.64-10.45 151.44-12.25 151.69-15.3L151.69-15.3Q151.79-16.25 151.84-17.73 151.89-19.2 151.94-20.48 151.99-21.75 151.99-22.05L151.99-22.05Q151.99-23.85 153.31-24.58 154.64-25.3 156.24-25.3L156.24-25.3Q157.64-25.3 158.89-24.75 160.14-24.2 160.59-22.9L160.59-22.9 160.69-22.6Q160.24-22.2 159.91-19.9 159.59-17.6 159.14-13.75L159.14-13.75Q158.84-11.25 158.39-8.1 157.94-4.95 157.16-1.78 156.39 1.4 155.11 4.08 153.84 6.75 151.94 8.38 150.04 10 147.34 10ZM146.14 4.25L146.14 4.25Q147.69 4.25 148.91 1.43 150.14-1.4 150.84-6.6L150.84-6.6Q147.64-2.5 146.44-0.15 145.24 2.2 145.24 3.25L145.24 3.25Q145.24 4.25 146.14 4.25Z" opacity="1" transform="matrix(1,0,0,1,0,0)" fill="#000000" class="wordmark-text-0" data-fill-palette-color="primary" id="text-0"></path></svg></g></svg></g></svg></g></svg></g><g><svg viewBox="0 0 225.54051263514845 225.54051263514845" height="225.54051263514845" width="225.54051263514845"><g><svg></svg></g><g id="icon-0"><svg viewBox="0 0 225.54051263514845 225.54051263514845" height="225.54051263514845" width="225.54051263514845"><g><path d="M0 112.77c0-62.281 50.489-112.77 112.77-112.77 62.281 0 112.77 50.489 112.771 112.77 0 62.281-50.489 112.77-112.771 112.771-62.281 0-112.77-50.489-112.77-112.771zM112.77 214.959c56.437 0 102.189-45.751 102.189-102.189 0-56.437-45.751-102.189-102.189-102.188-56.437 0-102.189 45.751-102.188 102.188 0 56.437 45.751 102.189 102.188 102.189z" data-fill-palette-color="accent" fill="#000000" stroke="transparent"></path></g><g transform="matrix(1,0,0,1,55.51561679260673,49.15399017872145)"><svg viewBox="0 0 114.50927904993499 127.23253227770554" height="127.23253227770554" width="114.50927904993499"><g><svg xmlns="http://www.w3.org/2000/svg" xmlns:xlink="http://www.w3.org/1999/xlink" version="1.1" x="0" y="0" viewBox="9.5 5 81 90" enable-background="new 0 0 100 100" xml:space="preserve" height="127.23253227770554" width="114.50927904993499" class="icon-cg-0" data-fill-palette-color="accent" id="cg-0"><g fill="#000000" data-fill-palette-color="accent"><path fill="#000000" d="M72.5 32v-9c0-9.94-8.058-18-18-18h-9c-9.94 0-18 8.06-18 18v9h-18v47.25C9.5 87.949 16.551 95 25.25 95h49.5c8.699 0 15.75-7.051 15.75-15.75V32H72.5zM36.5 23c0-4.964 4.039-9 9-9h9c4.964 0 9 4.036 9 9v9h-27V23zM27.5 50h9v9h-9V50zM45.5 77h-9v-9h9V77zM45.5 50h9v9h-9V50zM63.5 77h-9v-9h9V77zM72.5 59h-9v-9h9V59z" data-fill-palette-color="accent"></path></g></svg></g></svg></g></svg></g></svg></g></svg></g><defs></defs></svg><rect width="395.52" height="131.8710751227955" fill="none" stroke="none" visibility="hidden"></rect></g></svg></g></svg>